<?xml version="1.0" encoding="UTF-8" standalone="no"?>
<!-- Created with Inkscape (http://www.inkscape.org/) -->

<svg
   width="189.54704mm"
   height="25.101053mm"
   viewBox="0 0 189.54704 25.101053"
   version="1.1"
   id="svg1"
   xml:space="preserve"
   xmlns="http://www.w3.org/2000/svg"
   xmlns:svg="http://www.w3.org/2000/svg"><defs
     id="defs1" /><g
     id="layer1"
     transform="translate(33.485863,-1196.3571)"><path
       style="font-weight:600;font-size:92.7946px;line-height:0;font-family:Poppins;-inkscape-font-specification:'Poppins Semi-Bold';letter-spacing:-3.00655px;white-space:pre;fill:#ffffff"
       d="m 212.02777,819.52012 h -12.99125 l -29.41589,-44.44861 v 44.44861 H 156.62939 V 754.6567 h 12.99124 l 29.41589,44.54141 V 754.6567 h 12.99125 z m 57.58837,-26.81764 q 0,2.78384 -0.37118,5.01091 h -37.58181 q 0.46397,5.56768 3.89737,8.7227 3.4334,3.15501 8.44431,3.15501 7.23798,0 10.3002,-6.21724 h 14.01199 q -2.22707,7.42357 -8.53711,12.24889 -6.31003,4.73253 -15.49669,4.73253 -7.42357,0 -13.36243,-3.24782 -5.84606,-3.3406 -9.18666,-9.37225 -3.24781,-6.03165 -3.24781,-13.91919 0,-7.98034 3.24781,-14.01199 3.24781,-6.03164 9.09387,-9.27946 5.84606,-3.24781 13.45522,-3.24781 7.33077,0 13.08404,3.15502 5.84605,3.15502 9.00107,9.00108 3.24781,5.75326 3.24781,13.26962 z m -13.45521,-3.71178 q -0.0928,-5.01091 -3.61899,-7.98034 -3.5262,-3.06222 -8.6299,-3.06222 -4.82532,0 -8.16593,2.96943 -3.24781,2.87663 -3.99016,8.07313 z m 35.03928,-10.20741 v 24.86896 q 0,2.59825 1.20633,3.80458 1.29913,1.11353 4.26856,1.11353 h 6.03165 v 10.94976 h -8.16593 q -16.42464,0 -16.42464,-15.96067 v -24.77616 h -6.12445 v -10.67138 h 6.12445 v -12.71286 h 13.08403 v 12.71286 h 11.50654 v 10.67138 z"
       id="text56"
       transform="matrix(0.36115072,0,0,0.36115072,-90.052679,925.00224)"
       aria-label="Net" /><path
       style="font-weight:600;font-size:92.7946px;line-height:0;font-family:Poppins;-inkscape-font-specification:'Poppins Semi-Bold';letter-spacing:-3.00655px;white-space:pre;fill:#ffffff"
       d="m 203.86184,774.79313 q 0,5.19649 -2.50545,9.74343 -2.41266,4.54693 -7.70195,7.33077 -5.1965,2.78384 -13.17684,2.78384 h -10.85697 v 24.86895 h -12.99124 v -64.77063 h 23.84821 q 7.51637,0 12.80566,2.59825 5.28929,2.59825 7.88754,7.14519 2.69104,4.54693 2.69104,10.3002 z m -23.94101,9.37225 q 5.38209,0 7.98034,-2.41266 2.59825,-2.50545 2.59825,-6.95959 0,-9.46505 -10.57859,-9.46505 h -10.3002 v 18.8373 z m 77.91033,8.5371 q 0,2.78384 -0.37118,5.01091 h -37.58181 q 0.46397,5.56768 3.89737,8.7227 3.4334,3.15501 8.44431,3.15501 7.23798,0 10.3002,-6.21724 h 14.01198 q -2.22707,7.42357 -8.5371,12.24889 -6.31003,4.73253 -15.4967,4.73253 -7.42357,0 -13.36242,-3.24782 -5.84606,-3.3406 -9.18667,-9.37225 -3.24781,-6.03165 -3.24781,-13.91919 0,-7.98034 3.24781,-14.01199 3.24781,-6.03164 9.09387,-9.27946 5.84606,-3.24781 13.45522,-3.24781 7.33078,0 13.08404,3.15502 5.84606,3.15502 9.00108,9.00108 3.24781,5.75326 3.24781,13.26962 z m -13.45522,-3.71178 q -0.0928,-5.01091 -3.61899,-7.98034 -3.52619,-3.06222 -8.6299,-3.06222 -4.82532,0 -8.16592,2.96943 -3.24781,2.87663 -3.99017,8.07313 z m 32.90501,-12.89845 q 2.50545,-4.08296 6.49562,-6.40283 4.08297,-2.31986 9.27946,-2.31986 v 13.6408 h -3.4334 q -6.12444,0 -9.27946,2.87664 -3.06222,2.87663 -3.06222,10.02181 v 25.61131 h -12.99124 v -51.40821 h 12.99124 z m 41.16363,44.26303 q -6.31004,0 -11.32095,-2.22707 -5.0109,-2.31987 -7.98033,-6.21724 -2.87663,-3.89738 -3.15502,-8.6299 h 13.08404 q 0.37118,2.96943 2.87663,4.91811 2.59825,1.94869 6.40283,1.94869 3.71179,0 5.75327,-1.48471 2.13427,-1.48472 2.13427,-3.80458 0,-2.50546 -2.59825,-3.71179 -2.50545,-1.29912 -8.07313,-2.78384 -5.75326,-1.39191 -9.46505,-2.87663 -3.61899,-1.48471 -6.31003,-4.54693 -2.59825,-3.06222 -2.59825,-8.25872 0,-4.26855 2.41266,-7.79475 2.50546,-3.52619 7.05239,-5.56768 4.63973,-2.04148 10.85697,-2.04148 9.18667,0 14.66155,4.63973 5.47488,4.54694 6.03165,12.34169 h -12.43448 q -0.27838,-3.06223 -2.59825,-4.82532 -2.22707,-1.8559 -6.03165,-1.8559 -3.52619,0 -5.47488,1.29913 -1.85589,1.29912 -1.85589,3.61899 0,2.59825 2.59825,3.99017 2.59825,1.29912 8.07313,2.69104 5.56767,1.39192 9.18666,2.87663 3.61899,1.48472 6.21724,4.63973 2.69104,3.06222 2.78384,8.16593 0,4.45414 -2.50545,7.98033 -2.41266,3.5262 -7.05239,5.56768 -4.54694,1.94869 -10.67138,1.94869 z m 50.72153,0 q -7.42357,0 -13.36243,-3.24782 -5.93885,-3.3406 -9.37225,-9.37225 -3.34061,-6.03165 -3.34061,-13.91919 0,-7.88754 3.4334,-13.91919 3.5262,-6.03165 9.55785,-9.27946 6.03165,-3.34061 13.45521,-3.34061 7.42357,0 13.45522,3.34061 6.03165,3.24781 9.46505,9.27946 3.5262,6.03165 3.5262,13.91919 0,7.88754 -3.61899,13.91919 -3.5262,6.03165 -9.65064,9.37225 -6.03165,3.24782 -13.54801,3.24782 z m 0,-11.32095 q 3.52619,0 6.58841,-1.6703 3.15502,-1.7631 5.01091,-5.1965 1.85589,-3.4334 1.85589,-8.35151 0,-7.33077 -3.89737,-11.22815 -3.80458,-3.99017 -9.37226,-3.99017 -5.56767,0 -9.37225,3.99017 -3.71178,3.89738 -3.71178,11.22815 0,7.33077 3.61899,11.32094 3.71178,3.89737 9.27946,3.89737 z m 61.85692,-41.66477 q 9.18667,0 14.84714,5.84606 5.66047,5.75326 5.66047,16.14626 v 30.15824 H 438.5394 v -28.39514 q 0,-6.12445 -3.06223,-9.37226 -3.06222,-3.3406 -8.35151,-3.3406 -5.38209,0 -8.5371,3.3406 -3.06223,3.24781 -3.06223,9.37226 v 28.39514 h -12.99124 v -51.40821 h 12.99124 v 6.40283 q 2.59825,-3.3406 6.58842,-5.1965 4.08296,-1.94868 8.90828,-1.94868 z m 77.63188,25.33292 q 0,2.78384 -0.37118,5.01091 h -37.58181 q 0.46397,5.56768 3.89737,8.7227 3.4334,3.15501 8.44431,3.15501 7.23798,0 10.3002,-6.21724 h 14.01198 q -2.22707,7.42357 -8.5371,12.24889 -6.31003,4.73253 -15.4967,4.73253 -7.42357,0 -13.36242,-3.24782 -5.84606,-3.3406 -9.18667,-9.37225 -3.24781,-6.03165 -3.24781,-13.91919 0,-7.98034 3.24781,-14.01199 3.24781,-6.03164 9.09387,-9.27946 5.84606,-3.24781 13.45522,-3.24781 7.33077,0 13.08404,3.15502 5.84606,3.15502 9.00108,9.00108 3.24781,5.75326 3.24781,13.26962 z m -13.45522,-3.71178 q -0.0928,-5.01091 -3.61899,-7.98034 -3.52619,-3.06222 -8.6299,-3.06222 -4.82532,0 -8.16592,2.96943 -3.24781,2.87663 -3.99017,8.07313 z m 32.90501,-38.13858 v 68.668 h -12.99124 v -68.668 z"
       id="text57"
       transform="matrix(0.36115072,0,0,0.36115072,-34.664203,925.18624)"
       aria-label="Personel" /></g></svg>
